<svg height="496pt" viewBox="0 0 496 496" width="496pt" xmlns="http://www.w3.org/2000/svg"><path d="m472 0h-272c-13.230469 0-24 10.769531-24 24v112h16v-112c0-4.414062 3.585938-8 8-8h272c4.414062 0 8 3.585938 8 8v336c0 4.414062-3.585938 8-8 8h-8v-336h-256v193.472656c-2.511719-.898437-5.183594-1.472656-8-1.472656v-29.769531l-19.648438-6.542969 9.265626-18.519531-30.785157-30.785157-18.519531 9.265626-6.542969-19.648438h-43.53125l-6.542969 19.648438-18.519531-9.265626-30.785156 30.785157 9.265625 18.519531-19.65625 6.542969v29.769531c-13.230469 0-24 10.769531-24 24v32c0 13.230469 10.769531 24 24 24h8v16h-8c-13.230469 0-24 10.769531-24 24v32c0 13.230469 10.769531 24 24 24h8v16h-8c-13.230469 0-24 10.769531-24 24v32c0 13.230469 10.769531 24 24 24h176c13.230469 0 24-10.769531 24-24v-32c0-13.230469-10.769531-24-24-24h-8v-16h8c10.414062 0 19.214844-6.710938 22.527344-16h249.472656c13.230469 0 24-10.769531 24-24v-336c0-13.230469-10.769531-24-24-24zm-272 320h-8v-16h8c10.414062 0 19.214844-6.710938 22.527344-16h225.472656v80h-224v-24c0-13.230469-10.769531-24-24-24zm24-72v-40h224v64h-224zm224-56h-224v-64h224zm0-144v64h-224v-64zm-408 157.769531 18.367188-6.121093 1.34375-3.542969c.394531-1.035157.800781-2.035157 1.234374-3.027344l1.550782-3.460937-8.648438-17.296876 14.472656-14.472656 17.296876 8.648438 3.460937-1.550782c.992187-.441406 1.992187-.839843 3.027344-1.234374l3.542969-1.34375 6.121093-18.367188h20.46875l6.121094 18.367188 3.542969 1.34375c1.035156.394531 2.035156.800781 3.027344 1.234374l3.460937 1.550782 17.296875-8.648438 14.472656 14.472656-8.648437 17.296876 1.550781 3.460937c.441406.992187.839844 1.992187 1.234375 3.027344l1.34375 3.542969 18.359375 6.121093v18.230469h-32.894531c.535156-2.632812.894531-5.296875.894531-8 0-22.054688-17.945312-40-40-40s-40 17.945312-40 40c0 2.703125.359375 5.367188.894531 8h-32.894531zm49.550781 18.230469c-.910156-2.574219-1.550781-5.238281-1.550781-8 0-13.230469 10.769531-24 24-24s24 10.769531 24 24c0 2.761719-.640625 5.425781-1.550781 8zm-73.550781 56v-32c0-4.414062 3.585938-8 8-8h176c4.414062 0 8 3.585938 8 8v32c0 4.414062-3.585938 8-8 8h-176c-4.414062 0-8-3.585938-8-8zm32 24h128v16h-128zm160 136v32c0 4.414062-3.585938 8-8 8h-176c-4.414062 0-8-3.585938-8-8v-32c0-4.414062 3.585938-8 8-8h176c4.414062 0 8 3.585938 8 8zm-32-24h-128v-16h128zm32-40c0 4.414062-3.585938 8-8 8h-176c-4.414062 0-8-3.585938-8-8v-32c0-4.414062 3.585938-8 8-8h176c4.414062 0 8 3.585938 8 8zm0 0"/><path d="m416 64h16v16h-16zm0 0"/><path d="m384 64h16v16h-16zm0 0"/><path d="m240 64h16v32h-16zm0 0"/><path d="m272 64h16v32h-16zm0 0"/><path d="m304 64h16v32h-16zm0 0"/><path d="m416 224h16v16h-16zm0 0"/><path d="m384 224h16v16h-16zm0 0"/><path d="m304 224h16v32h-16zm0 0"/><path d="m240 144h16v16h-16zm0 0"/><path d="m272 144h16v16h-16zm0 0"/><path d="m416 144h16v32h-16zm0 0"/><path d="m384 144h16v32h-16zm0 0"/><path d="m352 144h16v32h-16zm0 0"/><path d="m432 304h-128v48h128zm-16 32h-96v-16h96zm0 0"/><path d="m32 256h16v16h-16zm0 0"/><path d="m64 256h16v16h-16zm0 0"/><path d="m176 352h16v16h-16zm0 0"/><path d="m144 352h16v16h-16zm0 0"/><path d="m32 448h16v16h-16zm0 0"/><path d="m64 448h16v16h-16zm0 0"/><path d="m272 224h16v32h-16zm0 0"/><path d="m240 224h16v32h-16zm0 0"/><path d="m272 336h16v16h-16zm0 0"/><path d="m240 336h16v16h-16zm0 0"/><path d="m272 304h16v16h-16zm0 0"/><path d="m240 304h16v16h-16zm0 0"/></svg>