<?xml version="1.0" standalone="no"?><!DOCTYPE svg PUBLIC "-//W3C//DTD SVG 1.1//EN" "http://www.w3.org/Graphics/SVG/1.1/DTD/svg11.dtd"><svg t="1600424446259" class="icon" viewBox="0 0 1024 1024" version="1.1" xmlns="http://www.w3.org/2000/svg" p-id="11430" xmlns:xlink="http://www.w3.org/1999/xlink" width="200" height="200"><defs><style type="text/css"></style></defs><path d="M0 0h1023.997806v1023.997806H0z" fill-opacity="0" p-id="11431"></path><path d="M636.341494 928.912295a36.57135 36.57135 0 0 0-13.165687 0A435.199067 435.199067 0 0 1 219.428101 833.095358l52.662745-52.662745-193.09673-32.182788 32.182789 193.828156 54.125598-54.125598A506.147487 506.147487 0 0 0 511.998903 1023.997806a521.507454 521.507454 0 0 0 133.119715-17.554248 38.765631 38.765631 0 0 0-8.777124-73.142701zM94.354084 630.490078a61.439868 61.439868 0 0 0 0-11.702833 429.347651 429.347651 0 0 1 95.08551-392.776301l51.19989 51.199891 32.182789-193.09673-193.828157 32.182789 56.31988 56.319879A506.147487 506.147487 0 0 0 0 511.998903a511.998903 511.998903 0 0 0 19.017102 127.268299 38.034204 38.034204 0 0 0 36.57135 28.525653 38.034204 38.034204 0 0 0 38.765632-37.302777zM1023.997806 511.998903a521.507454 521.507454 0 0 0-17.554248-133.119715 38.034204 38.034204 0 0 0-73.142701 10.239978 32.914215 32.914215 0 0 0 0 13.165686 424.959089 424.959089 0 0 1 14.62854 109.714051 433.004786 433.004786 0 0 1-111.176904 292.570801l-51.931318-51.19989-32.182788 193.096729 193.828156-32.182788-56.319879-54.857025A511.998903 511.998903 0 0 0 1023.997806 511.998903z m-84.845533-239.17663l-32.182788-193.828157-54.125598 54.125599A511.998903 511.998903 0 0 0 511.998903 0a519.313173 519.313173 0 0 0-127.999726 19.017102H380.342042a38.034204 38.034204 0 0 0-26.331372 35.839923 38.765631 38.765631 0 0 0 38.765631 38.034205h9.508551a422.033381 422.033381 0 0 1 109.714051-14.628541 430.810505 430.810505 0 0 1 287.450812 108.982624l-52.662744 52.662744zM701.438497 535.404567A114.102613 114.102613 0 0 0 577.095906 511.998903l-43.154193-43.88562-25.599945-29.257081a115.565467 115.565467 0 0 0-24.137091-125.074017A112.639759 112.639759 0 0 0 359.130659 292.570802l54.125598 54.125598a27.794226 27.794226 0 0 1 0 40.228485l-20.479956 18.285675a27.794226 27.794226 0 0 1-40.228485 0l-54.125598-54.125598a115.565467 115.565467 0 0 0 24.137091 125.074018 114.102613 114.102613 0 0 0 125.074018 24.137091l39.497058 39.497058 29.25708 29.25708a115.565467 115.565467 0 0 0 24.137091 125.074018 114.102613 114.102613 0 0 0 125.074018 24.137091l-54.125599-54.125598a27.794226 27.794226 0 0 1 0-40.228486l19.74853-19.748529a27.794226 27.794226 0 0 1 40.228485 0l53.394171 54.125599a108.982624 108.982624 0 0 0-23.405664-122.879737z" fill="#07C160" p-id="11432"></path></svg>