<?xml version="1.0" standalone="no"?><!DOCTYPE svg PUBLIC "-//W3C//DTD SVG 1.1//EN" "http://www.w3.org/Graphics/SVG/1.1/DTD/svg11.dtd"><svg t="1600424471895" class="icon" viewBox="0 0 1024 1024" version="1.1" xmlns="http://www.w3.org/2000/svg" p-id="12255" xmlns:xlink="http://www.w3.org/1999/xlink" width="200" height="200"><defs><style type="text/css"></style></defs><path d="M415.302044 104.057496a21.310668 21.310668 0 0 0-21.310668-21.310668H116.696706a21.310668 21.310668 0 0 0-21.310668 21.310668v277.294669c0 11.775264 9.535404 21.310668 21.310668 21.310669h277.29467a21.310668 21.310668 0 0 0 21.310668-21.310669V104.057496z" fill="#4AB4FA" p-id="12256"></path><path d="M421.573652 448.099994H89.178426a57.852384 57.852384 0 0 1-57.852384-57.852384V57.852384C31.326042 25.91838 57.244422 0 89.178426 0h332.267234c31.934004 0 57.852384 25.91838 57.852384 57.852384v332.267234a57.724392 57.724392 0 0 1-57.724392 57.980376z m-6.271608-362.72933a21.310668 21.310668 0 0 0-21.310668-21.310668H116.696706a21.310668 21.310668 0 0 0-21.310668 21.310668v277.294669c0 11.775264 9.535404 21.310668 21.310668 21.310668h277.29467a21.310668 21.310668 0 0 0 21.310668-21.310668V85.370664zM934.88557 1023.936004H602.490344a57.852384 57.852384 0 0 1-57.852384-57.852384v-268.271233c0-31.934004 25.91838-57.852384 57.852384-57.852385h332.267234c31.934004 0 57.852384 25.91838 57.852384 57.852385v268.143241a57.724392 57.724392 0 0 1-57.724392 57.980376z m-6.271608-298.605337a21.310668 21.310668 0 0 0-21.310668-21.310668H630.008624a21.310668 21.310668 0 0 0-21.310668 21.310668v213.234673c0 11.775264 9.535404 21.310668 21.310668 21.310668h277.29467a21.310668 21.310668 0 0 0 21.310668-21.310668v-213.234673zM935.013562 575.964002H602.298356a58.23636 58.23636 0 0 1-57.660396-58.748328V58.748328A58.23636 58.23636 0 0 1 602.298356 0h332.715206a58.23636 58.23636 0 0 1 57.660396 58.748328v458.40335A58.23636 58.23636 0 0 1 935.013562 575.964002z m-6.3996-499.168802a12.7992 12.7992 0 0 0-12.7992-12.7992h-294.381602a12.7992 12.7992 0 0 0-12.7992 12.7992v422.373602c0 7.03956 5.75964 12.7992 12.7992 12.7992h294.381602a12.7992 12.7992 0 0 0 12.7992-12.7992V76.7952zM421.701644 1023.936004H88.986438a58.23636 58.23636 0 0 1-57.660396-58.748328V570.71633A58.23636 58.23636 0 0 1 88.986438 511.968002h332.715206a58.23636 58.23636 0 0 1 57.660396 58.748328v394.40735a58.23636 58.23636 0 0 1-57.660396 58.812324z m-6.3996-435.172802a12.7992 12.7992 0 0 0-12.7992-12.7992h-294.381602a12.7992 12.7992 0 0 0-12.7992 12.7992v358.377602c0 7.03956 5.75964 12.7992 12.7992 12.7992h294.381602a12.7992 12.7992 0 0 0 12.7992-12.7992V588.763202z" fill="#999999" p-id="12257"></path></svg>