<?xml version="1.0" standalone="no"?><!DOCTYPE svg PUBLIC "-//W3C//DTD SVG 1.1//EN" "http://www.w3.org/Graphics/SVG/1.1/DTD/svg11.dtd"><svg t="1619428604383" class="icon" viewBox="0 0 1024 1024" version="1.1" xmlns="http://www.w3.org/2000/svg" p-id="5615" xmlns:xlink="http://www.w3.org/1999/xlink" width="200" height="200"><defs><style type="text/css"></style></defs><path d="M913.387 705.28c-45.334-26.24-100.587-19.2-137.814 13.653l-56.533-32.746V524.373c0-16.746-8.96-32.32-23.467-40.64l-145.066-83.52V328.64c47.146-16 81.066-60.587 81.066-113.173C631.573 149.44 578.133 96 512.107 96S392.64 149.44 392.64 215.467c0 52.586 33.92 97.173 81.067 113.173v71.573l-145.067 83.52c-14.507 8.32-23.467 23.894-23.467 40.64V686.08l-56.533 32.747c-37.227-32.854-92.587-39.894-137.813-13.654C53.76 738.24 34.347 811.2 67.093 868.267 99.947 925.333 172.587 944.96 229.44 912c45.333-26.24 66.88-77.867 57.173-126.72l51.947-30.187 149.973 86.4c7.254 4.16 15.36 6.294 23.467 6.294s16.213-2.134 23.467-6.294L685.333 755.2l51.947 30.187c-9.707 48.746 11.947 100.48 57.173 126.72 56.854 32.96 129.6 13.44 162.347-43.734 32.853-57.173 13.44-130.133-43.413-163.093zM195.52 852.907c-24.32 14.08-55.573 5.76-69.547-18.774-14.08-24.426-5.76-55.786 18.667-69.866 24.32-14.08 55.573-5.76 69.547 18.773 14.08 24.427 5.76 55.787-18.667 69.867z m327.147-392.32zM460.8 215.467c0-28.267 22.933-51.2 51.2-51.2s51.2 22.933 51.2 51.2-22.933 51.2-51.2 51.2-51.2-22.934-51.2-51.2z m181.333 475.946L512 766.4l-130.133-74.987v-149.76L512 466.667l130.133 74.986v149.76zM898.027 834.24c-14.08 24.427-45.227 32.853-69.547 18.773-24.32-14.08-32.747-45.44-18.667-69.866s45.227-32.854 69.547-18.774c24.427 14.08 32.747 45.334 18.667 69.867z" p-id="5616" fill="#34bfa3"></path></svg>