<?xml version="1.0" standalone="no"?><!DOCTYPE svg PUBLIC "-//W3C//DTD SVG 1.1//EN" "http://www.w3.org/Graphics/SVG/1.1/DTD/svg11.dtd"><svg t="1619428526783" class="icon" viewBox="0 0 1024 1024" version="1.1" xmlns="http://www.w3.org/2000/svg" p-id="5129" xmlns:xlink="http://www.w3.org/1999/xlink" width="200" height="200"><defs><style type="text/css"></style></defs><path d="M479.40805 1023.999731a42.183228 42.183228 0 0 1-37.8843-23.375419l-158.254274-276.743468 85.172504 34.391422 72.544404 121.713389 2.955513 3.492879a64.215232 64.215232 0 0 0-1.612098-6.717075l-18.270442-56.154742a42.451911 42.451911 0 0 1 53.736595-45.407424l80.604894 26.868298a41.645862 41.645862 0 0 1 25.524883 22.300687 42.451911 42.451911 0 0 1 0 35.19747l-65.82733 139.715149a41.914545 41.914545 0 0 1-37.346934 24.718834z m-9.94127-47.82557z m19.076492-1.612098zM468.929414 940.439325l9.672587 16.927028 51.318449-107.473192-45.407423-15.583612 8.866538 26.868297c13.165466 43.526643-2.418147 69.051525-21.225955 78.45543zM542.279867 853.923406z m435.266425 57.76684a41.914545 41.914545 0 0 1-12.359417-1.880781l-498.675608-150.462467a42.451911 42.451911 0 0 1-22.032004-66.096013l226.231068-306.835962-299.312838 305.492547a42.183228 42.183228 0 0 1-44.601375 11.016002L34.200355 605.929017a42.720594 42.720594 0 0 1-7.523123-77.918064L950.677995 8.378073l3.492878-1.880781a42.451911 42.451911 0 0 1 65.021281 36.272202v826.468842a42.451911 42.451911 0 0 1-42.720594 42.45191z m-481.211214-199.094087l469.12048 141.59593V84.415356l-23.644102 24.181468z m-163.359251-58.035523z m-258.473025-91.620896l262.771953 87.053285 510.497659-522.31971z" p-id="5130" fill="#34bfa3"></path></svg>