<?xml version="1.0" standalone="no"?><!DOCTYPE svg PUBLIC "-//W3C//DTD SVG 1.1//EN" "http://www.w3.org/Graphics/SVG/1.1/DTD/svg11.dtd"><svg t="1600424785028" class="icon" viewBox="0 0 1024 1024" version="1.1" xmlns="http://www.w3.org/2000/svg" p-id="34341" xmlns:xlink="http://www.w3.org/1999/xlink" width="200" height="200"><defs><style type="text/css"></style></defs><path d="M729.227636 139.636364c-51.246545 0-100.026182 21.038545-137.821091 59.857454-3.118545 3.165091-20.200727 21.736727-44.730181 48.686546l-34.071273 37.329454-34.443636-37.003636-45.242182-48.686546C395.217455 160.814545 346.344727 139.636364 294.772364 139.636364 184.459636 139.636364 93.090909 238.312727 93.090909 361.192727c0 61.579636 23.877818 115.153455 61.905455 159.650909l307.153454 335.127273c18.478545 19.921455 34.024727 28.392727 49.850182 28.392727 15.825455 0 31.418182-8.471273 49.803636-28.392727l305.617455-333.358545c3.863273-5.026909 3.863273-5.026909 7.028364-9.309091C916.712727 456.052364 930.909091 422.725818 930.909091 361.192727 930.909091 238.312727 839.540364 139.636364 729.227636 139.636364z m-251.345454 45.800727l34.397091 31.371636 34.071272-31.650909-2.56-2.792727c6.981818-7.633455 12.474182-13.498182 14.382546-15.499636C604.532364 119.296 665.227636 93.090909 729.227636 93.090909 866.071273 93.090909 977.454545 213.364364 977.454545 361.192727c0 91.508364-35.002182 138.658909-72.052363 188.509091l-2.141091 2.606546-307.153455 335.127272c-24.389818 26.391273-51.432727 43.473455-84.107636 43.473455s-59.671273-17.082182-84.014545-43.333818l-307.293091-335.266909C86.481455 512.279273 46.545455 447.534545 46.545455 361.192727 46.545455 213.364364 157.928727 93.090909 294.772364 93.090909c64.279273 0 125.207273 26.391273 171.613091 74.379636l14.103272 15.173819-2.606545 2.792727z" fill="#CECECE" p-id="34342"></path></svg>