<?xml version="1.0" standalone="no"?><!DOCTYPE svg PUBLIC "-//W3C//DTD SVG 1.1//EN" "http://www.w3.org/Graphics/SVG/1.1/DTD/svg11.dtd"><svg t="1619428806739" class="icon" viewBox="0 0 1024 1024" version="1.1" xmlns="http://www.w3.org/2000/svg" p-id="7079" xmlns:xlink="http://www.w3.org/1999/xlink" width="200" height="200"><defs><style type="text/css"></style></defs><path d="M758 204v30c0 12.15-9.85 22-22 22s-22-9.85-22-22v-30H534v30c0 12.15-9.85 22-22 22s-22-9.85-22-22v-30H310v30c0 12.15-9.85 22-22 22s-22-9.85-22-22v-30H128c-11.046 0-20 8.954-20 20v128h808V224c0-11.046-8.954-20-20-20H758z m-44-44v-42c0-12.15 9.85-22 22-22s22 9.85 22 22v42h138c35.346 0 64 28.654 64 64v640c0 35.346-28.654 64-64 64H128c-35.346 0-64-28.654-64-64V224c0-35.346 28.654-64 64-64h138v-42c0-12.15 9.85-22 22-22s22 9.85 22 22v42h180v-42c0-12.15 9.85-22 22-22s22 9.85 22 22v42h180z m202 236H108v468c0 11.046 8.954 20 20 20h768c11.046 0 20-8.954 20-20V396z m-163.556 68.444c8.591-8.592 22.52-8.592 31.112 0 8.592 8.591 8.592 22.52 0 31.112l-320 320c-8.591 8.592-22.52 8.592-31.112 0l-160-160c-8.592-8.591-8.592-22.52 0-31.112 8.591-8.592 22.52-8.592 31.112 0L448 768.887l304.444-304.443z" p-id="7080" fill="#36a3f7"></path></svg>