<?xml version="1.0" standalone="no"?><!DOCTYPE svg PUBLIC "-//W3C//DTD SVG 1.1//EN" "http://www.w3.org/Graphics/SVG/1.1/DTD/svg11.dtd"><svg t="1600423783472" class="icon" viewBox="0 0 1024 1024" version="1.1" xmlns="http://www.w3.org/2000/svg" p-id="1264" xmlns:xlink="http://www.w3.org/1999/xlink" width="200" height="200"><defs><style type="text/css"></style></defs><path d="M512 512m-512 0a512 512 0 1 0 1024 0 512 512 0 1 0-1024 0Z" fill="#0BABFE" p-id="1265"></path><path d="M525.653333 136.533333c112.64 0 105.813333 116.053333 105.813334 180.906667 0 40.96 23.893333 68.266667 44.373333 98.986667 20.48 23.893333 47.786667 61.44 64.853333 102.4 13.653333 34.133333 17.066667 71.68 6.826667 109.226666 3.413333 0 6.826667 3.413333 10.24 6.826667 10.24 6.826667 13.653333 20.48 13.653333 30.72 3.413333 10.24 3.413333 20.48 10.24 27.306667 13.653333 17.066667 20.48 30.72 20.48 40.96 0 10.24-10.24 20.48-20.48 23.893333-20.48 13.653333-51.2 20.48-71.68 44.373333l-3.413333-3.413333 3.413333 3.413333c-20.48 23.893333-44.373333 37.546667-68.266666 37.546667-23.893333 3.413333-44.373333-10.24-54.613334-30.72 0-3.413333-3.413333-6.826667-3.413333-10.24-30.72 0-54.613333-6.826667-75.093333-6.826667-30.72 0-51.2 10.24-68.266667 10.24-6.826667 13.653333-20.48 23.893333-34.133333 27.306667-20.48 3.413333-51.2 0-78.506667-13.653333-20.48-13.653333-54.613333-10.24-78.506667-17.066667-13.653333-3.413333-23.893333-6.826667-27.306666-17.066667-6.826667-10.24-3.413333-23.893333 3.413333-44.373333 3.413333-6.826667 0-17.066667 0-27.306667 0-10.24-3.413333-23.893333 3.413333-34.133333 6.826667-10.24 17.066667-17.066667 23.893334-20.48 10.24-3.413333 17.066667-6.826667 23.893333-10.24 6.826667-6.826667 13.653333-17.066667 20.48-23.893333l3.413333-3.413334c-3.413333-23.893333 0-47.786667 6.826667-75.093333 17.066667-51.2 54.613333-102.4 81.92-133.12 23.893333-30.72 27.306667-58.026667 30.72-88.746667 0-44.373333-30.72-174.08 92.16-184.32h13.653333z" fill="#FFFFFF" p-id="1266"></path><path d="M542.72 232.106667c-6.826667 0-10.24 3.413333-17.066667 6.826666s-10.24 10.24-13.653333 17.066667c-3.413333 6.826667-3.413333 13.653333-3.413333 23.893333v6.826667c3.413333 0 10.24 3.413333 17.066666 6.826667v-6.826667c0-3.413333 0-6.826667 3.413334-13.653333 0-3.413333 3.413333-6.826667 6.826666-10.24 3.413333-3.413333 3.413333-3.413333 6.826667-3.413334s6.826667 0 6.826667 3.413334c3.413333 3.413333 3.413333 6.826667 6.826666 10.24 0 3.413333 3.413333 6.826667 3.413334 10.24 0 3.413333 0 6.826667-3.413334 13.653333 0 3.413333-3.413333 3.413333-3.413333 6.826667 3.413333 0 10.24 3.413333 13.653333 6.826666h3.413334c3.413333-3.413333 3.413333-6.826667 6.826666-10.24 3.413333-6.826667 3.413333-13.653333 3.413334-23.893333 0-6.826667 0-13.653333-3.413334-20.48-3.413333-6.826667-6.826667-13.653333-13.653333-17.066667-10.24-3.413333-13.653333-6.826667-20.48-6.826666zM453.973333 238.933333c-3.413333 0-6.826667 3.413333-13.653333 6.826667-3.413333 3.413333-6.826667 6.826667-6.826667 13.653333-3.413333 6.826667-3.413333 13.653333-3.413333 20.48 0 6.826667 3.413333 13.653333 3.413333 20.48l10.24 10.24 3.413334-3.413333c3.413333 0 3.413333-3.413333 3.413333-3.413333-3.413333-3.413333-3.413333-3.413333-3.413333-6.826667-3.413333-3.413333-3.413333-6.826667-3.413334-10.24v-10.24c0-3.413333 3.413333-6.826667 3.413334-6.826667 0-3.413333 3.413333-3.413333 6.826666-3.413333s3.413333 0 6.826667 3.413333 3.413333 3.413333 3.413333 6.826667 3.413333 6.826667 3.413334 10.24v6.826667c3.413333-3.413333 6.826667-3.413333 13.653333-6.826667h3.413333v-10.24c0-6.826667-3.413333-13.653333-3.413333-20.48-3.413333-6.826667-6.826667-10.24-10.24-13.653333-6.826667 0-10.24-3.413333-17.066667-3.413334zM494.933333 290.133333c-6.826667 0-10.24 0-13.653333 3.413334-10.24 3.413333-20.48 13.653333-23.893333 17.066666 0 0-3.413333 3.413333-6.826667 3.413334-3.413333 3.413333-6.826667 6.826667-13.653333 10.24-6.826667 3.413333-6.826667 10.24-6.826667 17.066666 3.413333 6.826667 10.24 13.653333 20.48 20.48 6.826667 3.413333 13.653333 10.24 17.066667 13.653334 6.826667 3.413333 13.653333 6.826667 23.893333 10.24 13.653333 0 20.48-3.413333 30.72-6.826667 6.826667-3.413333 13.653333-10.24 23.893333-13.653333 17.066667-3.413333 27.306667-13.653333 30.72-23.893334 3.413333-3.413333 3.413333-10.24 0-13.653333-3.413333-3.413333-6.826667-6.826667-13.653333-10.24-17.066667-10.24-23.893333-10.24-34.133333-17.066667-13.653333-6.826667-23.893333-10.24-34.133334-10.24z" fill="#0BABFE" p-id="1267"></path><path d="M563.2 331.093333v6.826667c-3.413333 0-6.826667 3.413333-10.24 3.413333-3.413333 3.413333-10.24 6.826667-17.066667 10.24-13.653333 6.826667-27.306667 13.653333-44.373333 13.653334s-27.306667-6.826667-37.546667-13.653334c-6.826667-6.826667-10.24-10.24-13.653333-10.24l-3.413333-3.413333v-3.413333c3.413333 0 3.413333 0 3.413333 3.413333l3.413333 3.413333 10.24 10.24c10.24 6.826667 20.48 13.653333 34.133334 13.653334s27.306667-6.826667 40.96-13.653334c6.826667-3.413333 13.653333-6.826667 17.066666-10.24 6.826667-10.24 13.653333-10.24 17.066667-10.24z" fill="#FFFFFF" p-id="1268"></path><path d="M576.853333 348.16c-6.826667 10.24-17.066667 17.066667-30.72 20.48-6.826667 3.413333-13.653333 6.826667-20.48 13.653333-10.24 3.413333-20.48 10.24-34.133333 6.826667-10.24 0-20.48-3.413333-27.306667-10.24-6.826667-3.413333-10.24-10.24-17.066666-13.653333-3.413333 0-6.826667-3.413333-6.826667-6.826667-3.413333 51.2-37.546667 116.053333-54.613333 157.013333-10.24 27.306667-17.066667 54.613333-20.48 85.333334-30.72-40.96-6.826667-92.16 3.413333-112.64 13.653333-23.893333 13.653333-30.72 13.653333-27.306667-10.24 20.48-30.72 51.2-37.546666 81.92-3.413333 17.066667-3.413333 34.133333 0 47.786667 3.413333 17.066667 17.066667 30.72 34.133333 40.96 23.893333 17.066667 40.96 30.72 51.2 44.373333 10.24 13.653333 13.653333 27.306667 10.24 34.133333 0 3.413333-3.413333 6.826667-10.24 10.24-3.413333 0-6.826667 3.413333-13.653333 3.413334 3.413333 3.413333 6.826667 6.826667 6.826666 10.24 3.413333 6.826667 6.826667 10.24 10.24 17.066666 51.2 34.133333 112.64 20.48 157.013334-10.24 3.413333-13.653333 10.24-30.72 10.24-40.96 0-20.48 3.413333-40.96 6.826666-54.613333 3.413333-17.066667 10.24-27.306667 23.893334-34.133333 3.413333 0 3.413333-3.413333 6.826666-3.413334v-3.413333c3.413333-23.893333 23.893333-23.893333 51.2-13.653333 27.306667 10.24 37.546667 20.48 30.72 37.546666h6.826667c6.826667-17.066667-6.826667-30.72-37.546667-44.373333-3.413333 0-3.413333-3.413333-6.826666-3.413333 3.413333-17.066667 3.413333-34.133333 0-47.786667-6.826667-34.133333-30.72-64.853333-47.786667-81.92-3.413333 0-3.413333 3.413333 3.413333 10.24 17.066667 13.653333 51.2 68.266667 30.72 116.053333-6.826667 0-10.24-3.413333-13.653333-3.413333-6.826667-40.96-23.893333-75.093333-34.133333-88.746667-6.826667-34.133333-34.133333-95.573333-44.373334-136.533333z" fill="#0BABFE" p-id="1269"></path></svg>