<?xml version="1.0" standalone="no"?><!DOCTYPE svg PUBLIC "-//W3C//DTD SVG 1.1//EN" "http://www.w3.org/Graphics/SVG/1.1/DTD/svg11.dtd"><svg t="1578745909779" class="icon" viewBox="0 0 1024 1024" version="1.1" xmlns="http://www.w3.org/2000/svg" p-id="2773" xmlns:xlink="http://www.w3.org/1999/xlink" width="200" height="200"><defs><style type="text/css"></style></defs><path d="M537.936 608l45.264 45.248a16 16 0 0 1 0 22.64l-11.312 11.312a16 16 0 0 1-22.64 0L504 641.92l-45.248 45.264a16 16 0 0 1-22.64 0l-11.312-11.312a16 16 0 0 1 0-22.64L470.08 608l-45.264-45.248a16 16 0 0 1 0-22.64l11.312-11.312a16 16 0 0 1 22.64 0L504 574.08l45.248-45.264a16 16 0 0 1 22.64 0l11.312 11.312a16 16 0 0 1 0 22.64L537.92 608zM344 408v-36.64c0-90.096 71.504-163.36 160-163.36s160 73.264 160 163.36v36.64h109.28c14.768 0 26.72 11.952 26.72 26.72v346.56a26.72 26.72 0 0 1-26.72 26.72H250.72A26.72 26.72 0 0 1 224 781.28V434.72c0-14.768 11.952-26.72 26.72-26.72h93.28z m48 0h224v-36.64c0-63.84-50.272-115.36-112-115.36s-112 51.52-112 115.36v36.64z m-120 352h480v-304H272v304z" p-id="2774"></path></svg>