<?xml version="1.0" standalone="no"?><!DOCTYPE svg PUBLIC "-//W3C//DTD SVG 1.1//EN" "http://www.w3.org/Graphics/SVG/1.1/DTD/svg11.dtd"><svg t="1600424510996" class="icon" viewBox="0 0 1024 1024" version="1.1" xmlns="http://www.w3.org/2000/svg" p-id="13686" xmlns:xlink="http://www.w3.org/1999/xlink" width="200" height="200"><defs><style type="text/css"></style></defs><path d="M462.754271 342.463786a25.599984 25.599984 0 0 0-38.335976 22.143986v294.975816a25.599984 25.599984 0 0 0 38.399976 22.143986l255.48784-147.519908a25.471984 25.471984 0 0 0 0-44.287972L462.754271 342.463786z" fill="#407CD5" p-id="13687"></path><path d="M984.353945 102.335936c-24.383985 0-39.551975 15.167991-39.551975 39.743975v93.887942l-23.807986-33.40798A450.111719 450.111719 0 0 0 715.682113 43.071973a500.543687 500.543687 0 0 0-203.519873-43.007973A511.80768 511.80768 0 0 0 43.170533 305.855809c-113.343929 258.495838 4.095997 561.343649 261.823836 675.135578A501.119687 501.119687 0 0 0 508.642242 1023.99936a511.74368 511.74368 0 0 0 468.607707-304.63981c1.599999-4.991997 8.255995-30.079981-17.791989-39.295975a44.927972 44.927972 0 0 0-14.65599-2.623998c-36.095977 0-58.687963 50.751968-59.647963 52.735967-51.455968 86.079946-122.687923 148.351907-211.647868 185.087884a423.999735 423.999735 0 0 1-164.159897 33.087979c-175.039891 0-332.287792-107.071933-400.70375-272.767829a429.951731 429.951731 0 0 1 1.663999-335.74379 424.511735 424.511735 0 0 1 236.799852-230.975856 408.895744 408.895744 0 0 1 163.327898-33.983979c151.807905 0 295.423815 83.967948 374.719766 219.071863l11.583993 19.839988h-123.007924c-24.447985 0-39.551975 15.167991-39.551975 39.743975s15.103991 39.743975 39.551975 39.743975h210.687869c24.447985 0 39.551975-15.167991 39.551975-39.743975V142.079911c-0.064-24.511985-15.167991-39.743975-39.615975-39.743975z" fill="#6B7691" p-id="13688"></path></svg>