<svg height="512pt" viewBox="0 0 512 512" width="512pt" xmlns="http://www.w3.org/2000/svg"><path d="m0 0v512h512v-512zm482 482h-452v-452h452zm0 0"/><path d="m452 60h-392v392h392zm-30 30v90.667969h-332v-90.667969zm0 120.667969v90.664062h-332v-90.664062zm-332 211.332031v-90.667969h332v90.667969zm0 0"/><path d="m271.011719 241h120.953125v30h-120.953125zm0 0"/><path d="m271.011719 120.332031h120.953125v30h-120.953125zm0 0"/><path d="m195.523438 120.332031h45.464843v30h-45.464843zm0 0"/><path d="m120.035156 120.332031h45.464844v30h-45.464844zm0 0"/><path d="m195.523438 241h45.464843v30h-45.464843zm0 0"/><path d="m120.035156 241h45.464844v30h-45.464844zm0 0"/><path d="m195.523438 361.667969h45.464843v30h-45.464843zm0 0"/><path d="m120.035156 361.667969h45.464844v30h-45.464844zm0 0"/><path d="m271.011719 361.667969h120.953125v30h-120.953125zm0 0"/></svg>