<svg height="512pt" viewBox="0 0 512 512" width="512pt" xmlns="http://www.w3.org/2000/svg"><path d="m213.332031 512h-204.796875c-4.710937 0-8.535156-3.824219-8.535156-8.535156v-68.265625c0-4.710938 3.824219-8.53125 8.535156-8.53125h204.796875c4.710938 0 8.535157 3.820312 8.535157 8.53125v68.265625c0 4.710937-3.824219 8.535156-8.535157 8.535156zm-196.265625-17.066406h187.734375v-51.199219h-187.734375zm0 0"/><path d="m179.199219 477.867188h-68.265625c-4.710938 0-8.535156-3.824219-8.535156-8.535157 0-4.710937 3.824218-8.53125 8.535156-8.53125h68.265625c4.710937 0 8.535156 3.820313 8.535156 8.53125 0 4.710938-3.824219 8.535157-8.535156 8.535157zm0 0"/><path d="m76.800781 477.867188h-34.132812c-4.710938 0-8.535157-3.824219-8.535157-8.535157 0-4.710937 3.824219-8.53125 8.535157-8.53125h34.132812c4.710938 0 8.53125 3.820313 8.53125 8.53125 0 4.710938-3.820312 8.535157-8.53125 8.535157zm0 0"/><path d="m213.332031 409.601562h-204.796875c-4.710937 0-8.535156-3.824218-8.535156-8.535156v-68.265625c0-4.710937 3.824219-8.535156 8.535156-8.535156h204.796875c4.710938 0 8.535157 3.824219 8.535157 8.535156v68.265625c0 4.710938-3.824219 8.535156-8.535157 8.535156zm-196.265625-17.066406h187.734375v-51.203125h-187.734375zm0 0"/><path d="m68.265625 375.464844h-17.066406c-4.710938 0-8.53125-3.820313-8.53125-8.53125 0-4.710938 3.820312-8.535156 8.53125-8.535156h17.066406c4.710937 0 8.535156 3.824218 8.535156 8.535156 0 4.710937-3.824219 8.53125-8.535156 8.53125zm0 0"/><path d="m119.464844 375.464844h-17.066406c-4.707032 0-8.53125-3.820313-8.53125-8.53125 0-4.710938 3.824218-8.535156 8.53125-8.535156h17.066406c4.710937 0 8.535156 3.824218 8.535156 8.535156 0 4.710937-3.824219 8.53125-8.535156 8.53125zm0 0"/><path d="m170.667969 375.464844h-17.066407c-4.710937 0-8.535156-3.820313-8.535156-8.53125 0-4.710938 3.824219-8.535156 8.535156-8.535156h17.066407c4.710937 0 8.53125 3.824218 8.53125 8.535156 0 4.710937-3.820313 8.53125-8.53125 8.53125zm0 0"/><path d="m196.265625 443.734375h-170.664063c-4.710937 0-8.535156-3.824219-8.535156-8.535156v-34.132813c0-4.710937 3.824219-8.53125 8.535156-8.53125h170.664063c4.710937 0 8.535156 3.820313 8.535156 8.53125v34.132813c0 4.710937-3.824219 8.535156-8.535156 8.535156zm-162.132813-17.066406h153.601563v-17.066407h-153.601563zm0 0"/><path d="m503.464844 512h-204.796875c-4.710938 0-8.535157-3.824219-8.535157-8.535156v-68.265625c0-4.710938 3.824219-8.53125 8.535157-8.53125h204.796875c4.710937 0 8.535156 3.820312 8.535156 8.53125v68.265625c0 4.710937-3.824219 8.535156-8.535156 8.535156zm-196.265625-17.066406h187.734375v-51.199219h-187.734375zm0 0"/><path d="m469.332031 477.867188h-68.265625c-4.710937 0-8.53125-3.824219-8.53125-8.535157 0-4.710937 3.820313-8.53125 8.53125-8.53125h68.265625c4.710938 0 8.535157 3.820313 8.535157 8.53125 0 4.710938-3.824219 8.535157-8.535157 8.535157zm0 0"/><path d="m366.933594 477.867188h-34.132813c-4.710937 0-8.535156-3.824219-8.535156-8.535157 0-4.710937 3.824219-8.53125 8.535156-8.53125h34.132813c4.710937 0 8.53125 3.820313 8.53125 8.53125 0 4.710938-3.820313 8.535157-8.53125 8.535157zm0 0"/><path d="m503.464844 409.601562h-204.796875c-4.710938 0-8.535157-3.824218-8.535157-8.535156v-68.265625c0-4.710937 3.824219-8.535156 8.535157-8.535156h204.796875c4.710937 0 8.535156 3.824219 8.535156 8.535156v68.265625c0 4.710938-3.824219 8.535156-8.535156 8.535156zm-196.265625-17.066406h187.734375v-51.203125h-187.734375zm0 0"/><path d="m358.398438 375.464844h-17.066407c-4.710937 0-8.53125-3.820313-8.53125-8.53125 0-4.710938 3.820313-8.535156 8.53125-8.535156h17.066407c4.710937 0 8.535156 3.824218 8.535156 8.535156 0 4.710937-3.824219 8.53125-8.535156 8.53125zm0 0"/><path d="m409.601562 375.464844h-17.066406c-4.710937 0-8.535156-3.820313-8.535156-8.53125 0-4.710938 3.824219-8.535156 8.535156-8.535156h17.066406c4.707032 0 8.53125 3.824218 8.53125 8.535156 0 4.710937-3.824218 8.53125-8.53125 8.53125zm0 0"/><path d="m460.800781 375.464844h-17.066406c-4.710937 0-8.535156-3.820313-8.535156-8.53125 0-4.710938 3.824219-8.535156 8.535156-8.535156h17.066406c4.710938 0 8.53125 3.824218 8.53125 8.535156 0 4.710937-3.820312 8.53125-8.53125 8.53125zm0 0"/><path d="m486.398438 443.734375h-170.664063c-4.710937 0-8.535156-3.824219-8.535156-8.535156v-34.132813c0-4.710937 3.824219-8.53125 8.535156-8.53125h170.664063c4.710937 0 8.535156 3.820313 8.535156 8.53125v34.132813c0 4.710937-3.824219 8.535156-8.535156 8.535156zm-162.132813-17.066406h153.601563v-17.066407h-153.601563zm0 0"/><path d="m401.066406 307.199219c-4.710937 0-8.53125-3.820313-8.53125-8.53125v-17.066407c0-9.414062-7.65625-17.066406-17.070312-17.066406h-238.929688c-9.414062 0-17.070312 7.652344-17.070312 17.066406v17.066407c0 4.710937-3.820313 8.53125-8.53125 8.53125-4.710938 0-8.535156-3.820313-8.535156-8.53125v-17.066407c0-18.824218 15.308593-34.136718 34.136718-34.136718h238.929688c18.828125 0 34.136718 15.3125 34.136718 34.136718v17.066407c0 4.710937-3.824218 8.53125-8.535156 8.53125zm0 0"/><path d="m256 264.535156c-4.710938 0-8.535156-3.824218-8.535156-8.535156v-25.601562c0-4.707032 3.824218-8.53125 8.535156-8.53125s8.535156 3.824218 8.535156 8.53125v25.601562c0 4.710938-3.824218 8.535156-8.535156 8.535156zm0 0"/><path d="m256 204.800781c-1.21875 0-2.433594-.257812-3.566406-.777343-72.054688-33.136719-81.765625-95.847657-81.765625-152.824219 0-3.097657 1.679687-5.957031 4.386719-7.457031l76.796874-42.667969c2.578126-1.433594 5.710938-1.433594 8.285157 0l76.800781 42.667969c2.714844 1.5 4.394531 4.359374 4.394531 7.457031 0 56.976562-9.710937 119.6875-81.765625 152.824219-1.132812.519531-2.347656.777343-3.566406.777343zm-68.234375-148.601562c.90625 69.15625 20.933594 107.511719 68.234375 130.628906 47.300781-23.117187 67.328125-61.464844 68.234375-130.617187l-68.234375-37.914063zm0 0"/><path d="m230.410156 136.535156c-3.015625 0-5.921875-1.597656-7.476562-4.414062-10.632813-19.257813-16.726563-40.566406-18.117188-63.332032-.203125-3.414062 1.640625-6.625 4.703125-8.160156l34.132813-17.066406c4.207031-2.109375 9.335937-.410156 11.453125 3.816406 2.105469 4.214844.398437 9.34375-3.816407 11.449219l-28.980468 14.492187c1.820312 18.113282 7.050781 35.09375 15.574218 50.550782 2.28125 4.121094.777344 9.316406-3.34375 11.585937-1.324218.734375-2.738281 1.078125-4.128906 1.078125zm0 0"/></svg>