<?xml version="1.0" encoding="iso-8859-1"?>
<!-- Generator: Adobe Illustrator 19.0.0, SVG Export Plug-In . SVG Version: 6.00 Build 0)  -->
<svg version="1.1" id="Capa_1" xmlns="http://www.w3.org/2000/svg" xmlns:xlink="http://www.w3.org/1999/xlink" x="0px" y="0px"
	 viewBox="0 0 512 512" style="enable-background:new 0 0 512 512;" xml:space="preserve">
<g>
	<g>
		<path d="M121.906,114.745c5.081-6.945,8.091-15.497,8.091-24.741v-8c0-23.159-18.841-41.999-41.999-41.999
			S45.999,58.845,45.999,82.004v8c0,9.246,3.01,17.798,8.091,24.742C22.93,123.464,0,152.096,0,186.002V262
			c0,16.542,13.458,29.999,29.999,29.999h8.063v156.162c0,5.522,4.477,10,10,10h40.007h39.991c5.523,0,10-4.478,10-10v-45.07
			c0-5.522-4.477-10-10-10s-10,4.478-10,10v35.07H98.069V302.999v-14.006c0-5.522-4.477-10-10-10s-10,4.478-10,10v14.006v135.162
			H58.062V242.347h59.999v83.411c0,5.522,4.477,10,10,10s10-4.478,10-10v-33.76h7.937c16.542,0,29.999-13.458,29.999-29.999v-75.998
			C175.996,152.096,153.067,123.464,121.906,114.745z M65.999,82.004c0-12.131,9.869-22,22-22s22,9.869,22,22v8
			c0,12.131-9.869,22-22,22s-22-9.869-22-22V82.004z M155.997,262c0,5.514-4.486,10-10,10h-7.937v-81.998c0-5.522-4.477-10-10-10
			s-10,4.478-10,10v32.347H58.062v-32.347c0-5.522-4.477-10-10-10s-10,4.478-10,10V272h-8.063c-5.514,0-10-4.486-10-10v-75.998
			c0-29.774,24.223-53.999,53.999-53.999h27.999c29.775,0,53.999,24.224,53.999,53.999V262z"/>
	</g>
</g>
<g>
	<g>
		<path d="M135.127,358.598c-1.86-1.871-4.43-2.93-7.07-2.93c-2.63,0-5.21,1.06-7.07,2.93c-1.86,1.86-2.93,4.431-2.93,7.07
			c0,2.63,1.07,5.2,2.93,7.07c1.87,1.859,4.44,2.93,7.07,2.93c2.64,0,5.21-1.07,7.07-2.93c1.87-1.87,2.93-4.44,2.93-7.07
			C138.057,363.028,136.997,360.458,135.127,358.598z"/>
	</g>
</g>
<g>
	<g>
		<path d="M446.001,0.005c-36.392,0-65.999,29.606-65.999,65.999s29.607,65.999,65.999,65.999c36.392,0,65.999-29.606,65.999-65.999
			S482.394,0.005,446.001,0.005z M446.001,112.003c-25.363,0-45.999-20.636-45.999-45.999s20.636-45.999,45.999-45.999
			c25.363,0,45.999,20.636,45.999,45.999S471.365,112.003,446.001,112.003z"/>
	</g>
</g>
<g>
	<g>
		<path d="M446.001,190.001c-36.392,0-65.999,29.606-65.999,65.999s29.606,65.999,65.999,65.999S512,292.392,512,256
			S482.394,190.001,446.001,190.001z M446.001,301.999c-25.363,0-45.999-20.635-45.999-45.999c0-25.363,20.636-45.999,45.999-45.999
			S492,230.637,492,256C492,281.363,471.365,301.999,446.001,301.999z"/>
	</g>
</g>
<g>
	<g>
		<path d="M446.001,379.997c-36.392,0-65.999,29.606-65.999,65.999c0,36.392,29.606,65.999,65.999,65.999S512,482.388,512,445.996
			S482.394,379.997,446.001,379.997z M446.001,491.995c-25.363,0-45.999-20.636-45.999-45.999s20.636-45.999,45.999-45.999
			S492,420.633,492,445.996S471.365,491.995,446.001,491.995z"/>
	</g>
</g>
<g>
	<g>
		<path d="M263.064,170.682c-1.86-1.86-4.44-2.92-7.07-2.92s-5.21,1.06-7.07,2.92c-1.86,1.86-2.93,4.44-2.93,7.07
			s1.07,5.21,2.93,7.069c1.86,1.87,4.44,2.931,7.07,2.931s5.21-1.061,7.07-2.931c1.86-1.859,2.93-4.439,2.93-7.069
			S264.924,172.542,263.064,170.682z"/>
	</g>
</g>
<g>
	<g>
		<path d="M340.881,415.462c-3.906-3.903-10.237-3.903-14.142,0c-3.52,3.52-3.857,9.007-1.03,12.916h-59.715V266.254h59.622
			c-2.727,3.9-2.358,9.307,1.124,12.789c1.953,1.952,4.512,2.929,7.071,2.929s5.119-0.977,7.071-2.929l15.844-15.845
			c1.875-1.876,2.929-4.419,2.929-7.071c0-2.652-1.054-5.196-2.929-7.071l-15.844-15.844c-3.905-3.904-10.237-3.904-14.142,0
			c-3.558,3.558-3.863,9.126-0.937,13.042h-59.809v-30.999c0-5.522-4.477-10-10-10s-10,4.478-10,10v30.999h-28.999
			c-5.523,0-10,4.478-10,10c0,5.522,4.477,10,10,10h28.999v162.124c0,11.028,8.972,20,20,20h59.715
			c-2.826,3.909-2.49,9.395,1.03,12.915c1.953,1.952,4.512,2.929,7.071,2.929c2.559,0,5.119-0.977,7.071-2.929l15.844-15.844
			c1.875-1.875,2.929-4.419,2.929-7.071c0-2.652-1.054-5.195-2.929-7.071L340.881,415.462z"/>
	</g>
</g>
<g>
	<g>
		<path d="M356.725,66.806l-15.845-15.844c-3.905-3.904-10.237-3.904-14.142,0c-3.597,3.597-3.872,9.247-0.843,13.169h-59.902
			c-11.028,0-20,8.972-20,20v59.548c0,5.522,4.477,10,10,10s10-4.478,10-10V84.131h59.529c-2.63,3.89-2.227,9.218,1.217,12.662
			c1.953,1.952,4.512,2.929,7.071,2.929s5.119-0.977,7.071-2.929l15.844-15.845c1.875-1.876,2.929-4.419,2.929-7.071
			C359.654,71.225,358.6,68.681,356.725,66.806z"/>
	</g>
</g>
<g>
</g>
<g>
</g>
<g>
</g>
<g>
</g>
<g>
</g>
<g>
</g>
<g>
</g>
<g>
</g>
<g>
</g>
<g>
</g>
<g>
</g>
<g>
</g>
<g>
</g>
<g>
</g>
<g>
</g>
</svg>
