<?xml version="1.0" standalone="no"?><!DOCTYPE svg PUBLIC "-//W3C//DTD SVG 1.1//EN" "http://www.w3.org/Graphics/SVG/1.1/DTD/svg11.dtd"><svg t="1600424578551" class="icon" viewBox="0 0 1024 1024" version="1.1" xmlns="http://www.w3.org/2000/svg" p-id="15765" xmlns:xlink="http://www.w3.org/1999/xlink" width="200" height="200"><defs><style type="text/css"></style></defs><path d="M512 0c282.7776 0 512 229.2224 512 512s-229.2224 512-512 512S0 794.7776 0 512 229.2224 0 512 0z m0 51.2a460.8 460.8 0 1 0 0 921.6 460.8 460.8 0 0 0 0-921.6z m153.6 256a51.2 51.2 0 0 1 51.2 51.2v307.2a51.2 51.2 0 0 1-51.2 51.2H358.4a51.2 51.2 0 0 1-51.2-51.2V358.4a51.2 51.2 0 0 1 51.2-51.2h307.2z" p-id="15766"></path></svg>