<?xml version="1.0" standalone="no"?><!DOCTYPE svg PUBLIC "-//W3C//DTD SVG 1.1//EN" "http://www.w3.org/Graphics/SVG/1.1/DTD/svg11.dtd"><svg t="1600424559813" class="icon" viewBox="0 0 1024 1024" version="1.1" xmlns="http://www.w3.org/2000/svg" p-id="15634" xmlns:xlink="http://www.w3.org/1999/xlink" width="200" height="200"><defs><style type="text/css"></style></defs><path d="M357.4 366.1c0-4 1.5-7.9 4.5-10.9s7-4.5 10.9-4.5h278.5c4 0 7.9 1.5 10.9 4.5s4.6 7 4.6 10.9v278.5c0 4-1.5 7.9-4.6 10.9-3 3-7 4.6-10.9 4.6H372.8c-4 0-7.9-1.5-10.9-4.6-3-3-4.5-7-4.5-10.9V366.1z m0 0" fill="#D63B3F" p-id="15635"></path><path d="M512.2 64.2c-247.4 0-448 200.6-448 448s200.6 448 448 448 448-200.6 448-448c0.1-247.4-200.5-448-448-448z m0 793c-190.5 0-345-154.5-345-345 0-190.6 154.5-345 345-345 190.6 0 345 154.5 345 345 0.1 190.6-154.4 345-345 345z m0 0" fill="#D63B3F" p-id="15636"></path></svg>