<?xml version="1.0" standalone="no"?><!DOCTYPE svg PUBLIC "-//W3C//DTD SVG 1.1//EN" "http://www.w3.org/Graphics/SVG/1.1/DTD/svg11.dtd"><svg t="1578745894382" class="icon" viewBox="0 0 1024 1024" version="1.1" xmlns="http://www.w3.org/2000/svg" p-id="2650" xmlns:xlink="http://www.w3.org/1999/xlink" width="200" height="200"><defs><style type="text/css"></style></defs><path d="M475.344 721.12a75.296 75.296 0 0 1 93.44-1.04c1.408 1.088 2.448 5.12 1.856 5.712a10133.92 10133.92 0 0 1-43.296 44.272l-0.096 0.08a6.448 6.448 0 0 1-9.12-0.096 18020.992 18020.992 0 0 0-43.92-44.848c-0.448-0.448 0.192-3.328 1.12-4.08z m-104.976-121.12c40.112-30.128 89.984-48 144.032-48 56.48 0 108.384 19.504 149.376 52.144a13.488 13.488 0 0 1 1.28 19.936l-14.112 14.512a14.512 14.512 0 0 1-19.28 1.36A191.168 191.168 0 0 0 514.4 600a191.136 191.136 0 0 0-113.024 36.8 16 16 0 0 1-21.12-1.904l-11.792-12.48a15.072 15.072 0 0 1 1.904-22.4z m-99.44-104.96A382.416 382.416 0 0 1 514.4 408c96.32 0 184.368 35.456 251.776 94.048a11.904 11.904 0 0 1 0.72 17.28l-16.512 16.992a12.48 12.48 0 0 1-17.088 0.752 334.688 334.688 0 0 0-218.88-81.072 334.608 334.608 0 0 0-211.792 75.136 16 16 0 0 1-21.728-1.424l-11.392-12.064a15.488 15.488 0 0 1 1.44-22.608z m-106.096-109.36A533.92 533.92 0 0 1 514.4 256a533.984 533.984 0 0 1 355.52 134.848 15.008 15.008 0 0 1 0.8 21.712l-11.888 12.224a16 16 0 0 1-22.08 0.816A486.128 486.128 0 0 0 514.4 304a486.08 486.08 0 0 0-316.88 116.864 14.88 14.88 0 0 1-20.496-1.104l-13.248-14.016a13.888 13.888 0 0 1 1.04-20.064z" p-id="2651"></path></svg>